HIERARCHY
ROOT Hips
{
	OFFSET	0.00	0.00	0.00
	CHANNELS 6 Xposition Yposition Zposition Zrotation Xrotation Yrotation
	JOINT LeftUpLeg
	{
		OFFSET	 0.126116	-0.065224	 0.014019
		CHANNELS 3 Zrotation Xrotation Yrotation
		JOINT LeftLeg
		{
			OFFSET	 0.000000	 0.569914	 0.000000
			CHANNELS 3 Zrotation Xrotation Yrotation
			JOINT LeftFoot
			{
				OFFSET	 0.000000	 0.544423	 0.000000
				CHANNELS 3 Zrotation Xrotation Yrotation
				JOINT LeftToeBase
				{
					OFFSET	 0.000000	 0.207117	 0.000000
					CHANNELS 3 Zrotation Xrotation Yrotation
					End Site
					{
						OFFSET	 0.000000	 0.207117	 0.000000
					}
				}
			}
		}
	}
	JOINT RightUpLeg
	{
		OFFSET	-0.124023	-0.065224	 0.008373
		CHANNELS 3 Zrotation Xrotation Yrotation
		JOINT RightLeg
		{
			OFFSET	 0.000000	 0.570047	 0.000000
			CHANNELS 3 Zrotation Xrotation Yrotation
			JOINT RightFoot
			{
				OFFSET	 0.000000	 0.544354	 0.000000
				CHANNELS 3 Zrotation Xrotation Yrotation
				JOINT RightToeBase
				{
					OFFSET	 0.000000	 0.207540	 0.000000
					CHANNELS 3 Zrotation Xrotation Yrotation
					End Site
					{
						OFFSET	 0.000000	 0.207540	 0.000000
					}
				}
			}
		}
	}
	JOINT Spine
	{
		OFFSET	 0.000184	 0.117403	 0.007763
		CHANNELS 3 Zrotation Xrotation Yrotation
		JOINT Spine1
		{
			OFFSET	 0.000000	 0.137269	 0.000000
			CHANNELS 3 Zrotation Xrotation Yrotation
			JOINT Spine2
			{
				OFFSET	 0.000000	 0.156879	 0.000000
				CHANNELS 3 Zrotation Xrotation Yrotation
				JOINT LeftShoulder
				{
					OFFSET	 0.080501	 0.160143	 0.002496
					CHANNELS 3 Zrotation Xrotation Yrotation
					JOINT LeftArm
					{
						OFFSET	 0.000000	 0.164363	 0.000000
						CHANNELS 3 Zrotation Xrotation Yrotation
						JOINT LeftForeArm
						{
							OFFSET	 0.000000	 0.364576	 0.000000
							CHANNELS 3 Zrotation Xrotation Yrotation
							JOINT LeftHand
							{
								OFFSET	 0.000000	 0.360812	 0.000000
								CHANNELS 3 Zrotation Xrotation Yrotation
								JOINT LeftHandIndex1
								{
									OFFSET	 0.000000	 0.086006	 0.000000
									CHANNELS 3 Zrotation Xrotation Yrotation
									JOINT LeftHandIndex2
									{
										OFFSET	 0.000000	 0.047237	 0.000000
										CHANNELS 3 Zrotation Xrotation Yrotation
										JOINT LeftHandIndex3
										{
											OFFSET	-0.004284	 0.038165	 0.000551
											CHANNELS 3 Zrotation Xrotation Yrotation
											End Site
											{
												OFFSET	-0.004284	 0.038165	 0.000551
											}
										}
									}
								}
							}
						}
					}
				}
				JOINT Neck
				{
					OFFSET	 0.000000	 0.176489	 0.000000
					CHANNELS 3 Zrotation Xrotation Yrotation
					JOINT Head
					{
						OFFSET	 0.000000	 0.077941	 0.001747
						CHANNELS 3 Zrotation Xrotation Yrotation
						End Site
						{
							OFFSET	 0.000000	 0.077941	 0.001747
						}
					}
				}
				JOINT RightShoulder
				{
					OFFSET	-0.080363	 0.159706	-0.000306
					CHANNELS 3 Zrotation Xrotation Yrotation
					JOINT RightArm
					{
						OFFSET	 0.000000	 0.164196	 0.000000
						CHANNELS 3 Zrotation Xrotation Yrotation
						JOINT RightForeArm
						{
							OFFSET	 0.000000	 0.365611	 0.000000
							CHANNELS 3 Zrotation Xrotation Yrotation
							JOINT RightHand
							{
								OFFSET	 0.000000	 0.360648	 0.000000
								CHANNELS 3 Zrotation Xrotation Yrotation
								JOINT RightHandIndex1
								{
									OFFSET	 0.000000	 0.069977	 0.000000
									CHANNELS 3 Zrotation Xrotation Yrotation
									JOINT RightHandIndex2
									{
										OFFSET	 0.000000	 0.052305	 0.000000
										CHANNELS 3 Zrotation Xrotation Yrotation
										JOINT RightHandIndex3
										{
											OFFSET	 0.009002	 0.042196	 0.000782
											CHANNELS 3 Zrotation Xrotation Yrotation
											End Site
											{
												OFFSET	 0.009002	 0.042196	 0.000782
											}
										}
									}
								}
							}
						}
					}
				}
			}
		}
	}
}
MOTION
Frames:    13
Frame Time: 0.03333334
 0.001645	 1.271248	 0.063399	-0.087562	-0.007974	-179.996000	-175.697400	 0.648699	-17.851560	 2.019360	-9.443639	-0.090633	-5.723181	 68.869030	 4.609069	 1.292262	 28.425850	-2.713146	 175.451800	 1.378701	 17.885210	-2.178443	-10.475090	 0.066522	 5.887249	 69.299690	-4.780760	-1.288183	 28.361890	 2.710176	-0.090433	 2.718743	 2.044738	-0.500941	 3.664123	 1.083598	 0.446636	-4.672882	-3.117162	-101.478000	 1.740669	 90.353390	 1.988739	 63.666870	 1.181144	 2.194186	 4.580635	 1.367340	 12.974450	 5.101768	 5.670031	-6.580301	 5.266122	 0.000000	 0.000000	 0.000000	 0.000000	 0.000000	 0.000000	 0.000000	 0.089846	-3.783161	 0.005928	 0.008278	 1.240763	-0.764446	 101.796200	-0.213290	-89.955460	-6.359036	 63.467860	-2.430405	-2.787815	 4.267558	 1.385235	-15.988030	 1.104231	 10.544440	 15.208500	 5.323790	 0.000000	 0.000000	 0.000000	 0.000000	 0.000000	 0.000000	 0.000000
 0.001898	 1.262414	-0.075004	 0.053354	-0.728401	 179.979200	-175.204200	 2.780470	-17.808360	 3.367299	-15.496370	 0.200845	-8.344005	 73.439700	 6.078662	 1.292262	 28.425850	-2.713146	 175.850800	-7.685902	 17.561010	-1.030293	-4.998377	 0.221269	 8.223171	 73.204830	-5.485546	-1.288183	 28.361890	 2.710176	 0.049401	 1.997726	 2.057711	-0.605837	 3.568593	 1.104624	 0.495832	-4.629504	-3.116815	-101.478000	 1.740665	 90.353390	 1.361524	 64.678050	 1.728789	 2.205891	 4.289105	 1.366827	 13.246230	 4.133353	 5.947069	-6.580301	 5.266122	 0.000000	 0.000000	 0.000000	 0.000000	 0.000000	 0.000000	 0.000000	 0.089846	-3.783161	 0.005928	 0.008278	 1.240763	-0.764446	 101.796200	-0.213323	-89.955440	-2.964005	 64.498410	-5.523565	-2.710350	 3.912377	 1.050228	-20.703720	-0.050011	 7.193642	 15.208500	 5.323790	 0.000000	 0.000000	 0.000000	 0.000000	 0.000000	 0.000000	 0.000000
 0.001921	 1.261823	-0.084443	 0.054835	-0.770564	 179.977500	-175.186200	 2.847640	-17.804560	 3.431117	-15.775240	 0.218039	-8.518922	 73.687390	 6.187865	 1.292262	 28.425850	-2.713146	 175.850100	-8.121391	 17.535050	-1.029175	-4.992978	 0.221364	 8.517830	 73.651540	-5.637120	-1.288183	 28.361890	 2.710176	 0.050787	 1.955366	 2.058917	-0.625166	 3.563710	 1.106350	 0.504854	-4.627359	-3.116787	-101.478000	 1.740672	 90.353370	 1.368093	 64.911490	 1.682498	 2.380564	 4.275332	 1.353834	 13.206970	 3.649290	 6.057649	-6.580301	 5.266122	 0.000000	 0.000000	 0.000000	 0.000000	 0.000000	 0.000000	 0.000000	 0.089846	-3.783161	 0.005928	 0.008278	 1.240763	-0.764446	 101.796200	-0.213322	-89.955460	 0.718195	 64.620640	-8.830965	-2.819389	 3.797994	 0.668829	-26.012010	-0.843832	 3.279326	 15.208500	 5.323790	 0.000000	 0.000000	 0.000000	 0.000000	 0.000000	 0.000000	 0.000000
 0.001921	 1.261823	-0.084443	 0.054829	-0.770566	 179.977400	-175.186200	 2.847642	-17.804550	 3.431129	-15.775290	 0.218045	-8.518934	 73.687440	 6.187865	 1.292262	 28.425850	-2.713146	 175.850100	-8.121481	 17.535170	-1.029142	-4.992825	 0.221365	 8.518173	 73.651450	-5.637495	-1.288183	 28.361890	 2.710176	 0.050793	 1.955366	 2.058917	-0.625168	 3.563709	 1.106350	 0.504844	-4.627362	-3.116783	-101.478000	 1.740668	 90.353370	 1.426040	 65.120390	 1.588884	 2.555422	 4.279575	 1.340770	 13.145170	 3.193607	 6.160039	-6.580301	 5.266122	 0.000000	 0.000000	 0.000000	 0.000000	 0.000000	 0.000000	 0.000000	 0.089846	-3.783161	 0.005928	 0.008278	 1.240763	-0.764446	 101.796200	-0.213321	-89.955450	 4.603621	 64.584590	-12.311940	-2.924756	 3.699164	 0.270845	-31.216910	-1.636122	-0.535444	 15.208500	 5.323790	 0.000000	 0.000000	 0.000000	 0.000000	 0.000000	 0.000000	 0.000000
 0.001921	 1.261822	-0.084443	 0.054835	-0.770564	 179.977500	-175.186200	 2.847641	-17.804550	 3.431129	-15.775300	 0.218048	-8.518915	 73.687430	 6.187845	 1.292262	 28.425850	-2.713146	 175.850100	-8.121487	 17.535150	-1.029145	-4.992837	 0.221367	 8.518149	 73.651470	-5.637464	-1.288183	 28.361890	 2.710176	 0.050787	 1.955363	 2.058917	-0.625165	 3.563708	 1.106350	 0.504853	-4.627355	-3.116788	-101.478000	 1.740670	 90.353370	 1.444494	 65.185350	 1.560255	 2.604812	 4.280632	 1.337139	 13.126870	 3.058998	 6.190577	-6.580301	 5.266122	 0.000000	 0.000000	 0.000000	 0.000000	 0.000000	 0.000000	 0.000000	 0.089846	-3.783161	 0.005928	 0.008278	 1.240763	-0.764446	 101.796200	-0.213320	-89.955460	 5.761062	 64.555100	-13.348620	-2.960437	 3.666471	 0.252180	-32.711950	-1.817441	-1.717157	 15.208500	 5.323790	 0.000000	 0.000000	 0.000000	 0.000000	 0.000000	 0.000000	 0.000000
 0.001921	 1.261823	-0.084443	 0.054844	-0.770568	 179.977500	-175.186200	 2.847645	-17.804570	 3.431117	-15.775240	 0.218039	-8.518942	 73.687390	 6.187892	 1.292262	 28.425850	-2.713146	 175.850100	-8.121480	 17.535180	-1.029144	-4.992825	 0.221362	 8.518204	 73.651430	-5.637524	-1.288183	 28.361890	 2.710176	 0.050808	 1.955359	 2.058830	-0.625144	 3.563886	 1.106264	 0.504835	-4.627495	-3.116792	-101.478000	 1.740669	 90.353380	 1.436760	 65.158870	 1.572109	 2.584966	 4.280276	 1.338602	 13.134360	 3.113394	 6.178001	-6.580301	 5.266122	 0.000000	 0.000000	 0.000000	 0.000000	 0.000000	 0.000000	 0.000000	 0.089846	-3.783161	 0.005928	 0.008278	 1.240763	-0.764446	 101.796200	-0.213318	-89.955450	 5.292903	 64.568250	-12.928840	-2.946029	 3.679464	 0.259686	-32.108880	-1.744031	-1.240790	 15.208500	 5.323790	 0.000000	 0.000000	 0.000000	 0.000000	 0.000000	 0.000000	 0.000000
 0.001921	 1.261823	-0.084443	 0.054835	-0.770564	 179.977500	-175.186200	 2.847640	-17.804570	 3.431105	-15.775190	 0.218038	-8.518901	 73.687330	 6.187865	 1.292262	 28.425850	-2.713146	 175.850100	-8.121395	 17.535130	-1.029161	-4.992922	 0.221370	 8.518059	 73.651440	-5.637377	-1.288183	 28.361890	 2.710176	 0.050787	 1.955564	 2.058832	-0.625156	 3.563506	 1.106260	 0.504848	-4.627259	-3.116784	-101.478000	 1.740674	 90.353390	 1.407410	 65.053790	 1.617841	 2.502573	 4.278436	 1.344794	 13.164400	 3.334702	 6.128388	-6.580301	 5.266122	 0.000000	 0.000000	 0.000000	 0.000000	 0.000000	 0.000000	 0.000000	 0.089846	-3.783161	 0.005928	 0.008278	 1.240763	-0.764446	 101.796200	-0.213328	-89.955440	 3.399637	 64.607300	-11.234250	-2.894983	 3.728045	 0.417077	-29.629800	-1.378364	 0.609297	 15.208500	 5.323790	 0.000000	 0.000000	 0.000000	 0.000000	 0.000000	 0.000000	 0.000000
 0.001921	 1.261823	-0.084443	 0.054844	-0.770568	 179.977500	-175.186200	 2.847592	-17.804550	 3.431104	-15.775190	 0.218038	-8.518900	 73.687390	 6.187842	 1.292262	 28.425850	-2.713146	 175.850100	-8.121480	 17.535180	-1.029144	-4.992825	 0.221362	 8.518204	 73.651430	-5.637524	-1.288183	 28.361890	 2.710176	 0.050808	 1.955359	 2.058830	-0.625133	 3.563882	 1.106262	 0.504823	-4.627491	-3.116791	-101.478000	 1.740680	 90.353380	 1.356115	 64.869020	 1.702137	 2.342084	 4.275236	 1.356730	 13.219840	 3.745889	 6.036220	-6.580301	 5.266122	 0.000000	 0.000000	 0.000000	 0.000000	 0.000000	 0.000000	 0.000000	 0.089846	-3.783161	 0.005928	 0.008277	 1.240706	-0.764410	 101.796200	-0.213327	-89.955440	-0.097889	 64.615050	-8.097802	-2.794646	 3.819535	 0.749290	-24.874390	-0.677351	 4.116344	 15.208500	 5.323790	 0.000000	 0.000000	 0.000000	 0.000000	 0.000000	 0.000000	 0.000000
 0.001921	 1.261823	-0.084443	 0.054829	-0.770566	 179.977400	-175.186200	 2.847695	-17.804580	 3.431140	-15.775340	 0.218047	-8.519008	 73.687430	 6.187950	 1.292262	 28.425850	-2.713146	 175.850100	-8.121577	 17.535160	-1.029095	-4.992595	 0.221364	 8.518046	 73.651310	-5.637390	-1.288183	 28.361890	 2.710176	 0.050793	 1.955366	 2.058917	-0.625150	 3.563883	 1.106352	 0.504835	-4.627469	-3.116790	-101.478000	 1.740667	 90.353370	 1.250579	 64.491840	 1.833389	 2.191633	 4.271249	 1.367922	 13.313790	 4.326627	 5.897715	-6.580301	 5.266122	 0.000000	 0.000000	 0.000000	 0.000000	 0.000000	 0.000000	 0.000000	 0.089846	-3.783161	 0.005928	 0.008278	 1.240763	-0.764446	 101.796200	-0.213314	-89.955470	-7.932748	 64.327710	-0.913976	-2.786947	 4.037992	 1.068347	-18.365340	 0.091523	 7.389057	 15.208500	 5.323790	 0.000000	 0.000000	 0.000000	 0.000000	 0.000000	 0.000000	 0.000000
 0.001921	 1.261823	-0.084443	 0.054829	-0.770566	 179.977400	-175.186200	 2.847642	-17.804570	 3.431116	-15.775240	 0.218039	-8.518946	 73.687360	 6.187898	 1.292262	 28.425850	-2.713146	 175.850100	-8.121481	 17.535170	-1.029143	-4.992825	 0.221358	 8.518152	 73.651440	-5.637469	-1.288183	 28.361890	 2.710176	 0.050793	 1.955361	 2.058945	-0.625166	 3.563713	 1.106377	 0.504849	-4.627332	-3.116783	-101.478000	 1.740667	 90.353380	 0.814617	 62.971410	 1.989946	 3.267138	 4.295621	 1.287538	 13.477140	 4.198061	 5.805456	-6.580301	 5.266122	 0.000000	 0.000000	 0.000000	 0.000000	 0.000000	 0.000000	 0.000000	 0.089846	-3.783161	 0.005928	 0.008278	 1.240763	-0.764446	 101.796200	-0.213317	-89.955460	-7.618110	 35.778620	 5.498392	-56.139860	 50.731650	 27.800210	-3.774699	-27.559630	-20.129180	 15.208500	 5.323790	 0.000000	 0.000000	 0.000000	 0.000000	 0.000000	 0.000000	 0.000000
 0.001921	 1.261822	-0.084443	 0.054835	-0.770564	 179.977500	-175.186200	 2.847641	-17.804550	 3.431129	-15.775300	 0.218048	-8.518915	 73.687430	 6.187845	 1.292262	 28.425850	-2.713146	 175.850100	-8.121484	 17.535180	-1.029145	-4.992834	 0.221361	 8.518193	 73.651470	-5.637512	-1.288183	 28.361890	 2.710176	 0.050787	 1.955366	 2.058917	-0.625165	 3.563706	 1.106350	 0.504853	-4.627355	-3.116787	-101.478000	 1.740674	 90.353370	 0.554804	 61.971060	 2.105435	 3.782035	 4.304869	 1.249035	 13.604080	 4.371953	 5.692801	-6.580301	 5.266122	 0.000000	 0.000000	 0.000000	 0.000000	 0.000000	 0.000000	 0.000000	 0.089846	-3.783161	 0.005928	 0.008278	 1.240763	-0.764446	 101.796200	-0.213322	-89.955460	-17.617190	 27.045200	 21.568360	-80.950650	 55.147920	 47.003050	 10.039940	-33.732970	-26.250530	 15.208500	 5.323790	 0.000000	 0.000000	 0.000000	 0.000000	 0.000000	 0.000000	 0.000000
 0.001921	 1.261822	-0.084443	 0.054835	-0.770564	 179.977500	-175.186200	 2.847641	-17.804550	 3.431129	-15.775300	 0.218048	-8.518915	 73.687430	 6.187845	 1.292262	 28.425850	-2.713146	 175.850100	-8.121484	 17.535180	-1.029145	-4.992834	 0.221361	 8.518193	 73.651470	-5.637512	-1.288183	 28.361890	 2.710176	 0.050787	 1.955363	 2.058917	-0.625165	 3.563708	 1.106350	 0.504853	-4.627355	-3.116788	-101.478000	 1.740670	 90.353370	 0.289571	 60.878670	 2.213711	 4.319354	 4.313097	 1.208773	 13.740480	 4.566769	 5.566449	-6.580301	 5.266122	 0.000000	 0.000000	 0.000000	 0.000000	 0.000000	 0.000000	 0.000000	 0.089846	-3.783161	 0.005928	 0.008278	 1.240763	-0.764446	 101.796200	-0.213320	-89.955460	-34.135710	 19.089790	 42.189900	-79.105950	 54.575180	 44.357890	 22.315410	-31.882020	-32.523700	 15.208500	 5.323790	 0.000000	 0.000000	 0.000000	 0.000000	 0.000000	 0.000000	 0.000000
 0.001921	 1.261822	-0.084443	 0.054835	-0.770564	 179.977500	-175.186200	 2.847641	-17.804550	 3.431129	-15.775300	 0.218048	-8.518915	 73.687430	 6.187845	 1.292262	 28.425850	-2.713146	 175.850100	-8.121487	 17.535150	-1.029145	-4.992837	 0.221367	 8.518149	 73.651470	-5.637464	-1.288183	 28.361890	 2.710176	 0.050787	 1.955369	 2.058917	-0.625165	 3.563699	 1.106349	 0.504853	-4.627350	-3.116786	-101.478000	 1.740672	 90.353390	 0.080048	 59.965240	 2.276658	 4.803646	 4.318917	 1.172465	 13.843080	 4.631614	 5.477469	-6.580301	 5.266122	 0.000000	 0.000000	 0.000000	 0.000000	 0.000000	 0.000000	 0.000000	 0.089846	-3.783161	 0.005928	 0.008277	 1.240706	-0.764410	 101.796200	-0.213317	-89.955460	-51.379870	 10.508100	 56.134400	-55.175560	 49.059250	 23.852990	 22.400480	-25.687370	-44.858510	 15.208500	 5.323790	 0.000000	 0.000000	 0.000000	 0.000000	 0.000000	 0.000000	 0.000000
